<?xml version="1.0" encoding="utf-8"?>
<!-- Generator: Adobe Illustrator 21.0.2, SVG Export Plug-In . SVG Version: 6.00 Build 0)  -->
<svg version="1.1" id="Svhwarz" xmlns="http://www.w3.org/2000/svg" xmlns:xlink="http://www.w3.org/1999/xlink" x="0px" y="0px"
	 viewBox="0 0 425.2 283.5" style="enable-background:new 0 0 425.2 283.5;" xml:space="preserve">
<style type="text/css">
	.st0{display:none;}
	.st1{display:inline;}
	.st2{fill:none;stroke:#000000;stroke-width:3;stroke-miterlimit:10;}
	.st3{fill:none;stroke:#000000;stroke-width:2;stroke-miterlimit:10;}
	.st4{display:none;enable-background:new    ;}
	.st5{font-family:'OCRAStd';}
	.st6{font-size:19.188px;}
	.st7{display:inline;fill:#862854;}
	.st8{display:inline;fill:none;stroke:#FFFFFF;stroke-miterlimit:10;}
	.st9{fill:none;stroke:#FFFFFF;stroke-miterlimit:10;stroke-dasharray:11.9722,11.9722;}
	.st10{display:inline;fill:#86C27B;}
	.st11{display:inline;fill:#54BFCA;}
</style>
<g id="wortmarke" class="st0">
	<g class="st1">
		<path d="M339.6,125.8L339.6,125.8c-0.6-1-0.2-2.3,0.8-2.9l28-18.3c1-0.6,2.3-0.2,2.9,0.8l0,0c0.6,1,0.2,2.3-0.8,2.9l-28,18.3
			C341.5,127.1,340.2,126.8,339.6,125.8z"/>
		<path d="M339.8,123.4L339.8,123.4c0.7-0.9,2.1-1,3-0.3l29.6,22.6c0.9,0.7,1,2.1,0.3,3l0,0c-0.7,0.9-2.1,1-3,0.3L340,126.4
			C339.1,125.6,339,124.3,339.8,123.4z"/>
		<g>
			<path d="M292.5,177.9L292.5,177.9c-1.1-0.3-1.8-1.5-1.5-2.6l18.1-67.4c0.3-1.1,1.5-1.8,2.6-1.5l0,0c1.1,0.3,1.8,1.5,1.5,2.6
				l-18.1,67.4C294.8,177.5,293.6,178.2,292.5,177.9z"/>
			<path d="M327.7,179.1L327.7,179.1c-1.2,0-2.1-0.9-2.1-2.1v-69.8c0-1.2,0.9-2.1,2.1-2.1l0,0c1.2,0,2.1,0.9,2.1,2.1V177
				C329.8,178.2,328.9,179.1,327.7,179.1z"/>
			<path d="M315.5,168.8L315.5,168.8c-0.4-1.1,0.2-2.3,1.3-2.7l53.5-20.6c1.1-0.4,2.3,0.2,2.7,1.3l0,0c0.4,1.1-0.2,2.3-1.3,2.7
				L318.2,170C317.1,170.4,315.9,169.8,315.5,168.8z"/>
			<path d="M293.6,177.9L293.6,177.9c-1.1,0.3-2.3-0.4-2.6-1.5L273,109c-0.3-1.1,0.4-2.3,1.5-2.6l0,0c1.1-0.3,2.3,0.4,2.6,1.5
				l18.1,67.4C295.4,176.4,294.8,177.6,293.6,177.9z"/>
		</g>
	</g>
</g>
<g id="Wortmarke_2" class="st0">
	<g class="st1">
		<polygon class="st2" points="145.9,180.2 171,238.3 196.1,180.2 		"/>
		<polyline class="st3" points="172,184.7 153.5,184.7 169.3,221.1 		"/>
		<rect x="208.2" y="180.2" class="st2" width="16.7" height="58"/>
		<polyline class="st3" points="213.2,210.3 213.2,184.7 217.5,184.7 		"/>
		<path class="st2" d="M273.6,185c-8.6-7.2-21.4-6.1-28.6,2.5s-6.1,21.4,2.5,28.6L273.6,185z"/>
		<path class="st3" d="M265.9,188.3c-2.8-2-6.2-2.6-9.6-2"/>
		<path class="st2" d="M240.2,233.5c8.6,7.2,21.4,6.1,28.6-2.5c7.2-8.6,6.1-21.4-2.5-28.6L240.2,233.5z"/>
		<path class="st3" d="M247.9,230.2c2.8,2,6.2,2.6,9.6,2"/>
	</g>
</g>
<text transform="matrix(1 0 0 1 59.7117 237.6269)" class="st4 st5 st6">Mittelschicht Records</text>
<path class="st0" d="M194.1,204.3l5.3,3.1l-18,31.2c-0.8,1.4-1.8,1.8-3.4,0.9c-1.5-0.9-1.7-2-0.9-3.4l14.6-25.2h-0.1l-7.5,3.7
	l-0.4,0.7c-0.8,1.3-2,2.3-3.6,1.3c-1.5-0.9-1.4-2.5-0.7-3.8l0.4-0.7l-0.6-8.4h-0.1l-14.6,25.2c-0.8,1.4-1.8,1.8-3.4,0.9
	c-1.5-0.9-1.7-2-0.9-3.4l18-31.2l5.3,3.1l0.9,10.5L194.1,204.3z"/>
<path class="st0" d="M232.9,236c0.8,1.4,0.6,2.5-0.9,3.4s-2.6,0.5-3.4-0.9l-18-31.2L225,199c3.4-2,8.1-1.5,10.3,2.3l1.7,3
	c2.3,4,0.2,8-3.3,10l-3.9,2.3l17.6,8.2c0.8,0.4,1.9,0.8,2.4,1.7c0.7,1.2,0.2,2.6-1,3.3c-0.9,0.5-1.7,0.3-2.6-0.1l-21.5-10l-1,0.6
	L232.9,236z M221.3,215.8l9.5-5.5c1.2-0.7,3-1.9,2-3.6l-1.7-3c-1-1.7-2.9-0.9-4.2-0.2l-9.5,5.5L221.3,215.8z"/>
<g id="Fish_Kopie" class="st0">
	<text transform="matrix(1 0 0 1 59.7117 237.6269)" class="st1 st5 st6">Mittelschicht Records</text>
	<path class="st1" d="M194.1,204.3l5.3,3.1l-18,31.2c-0.8,1.4-1.8,1.8-3.4,0.9c-1.5-0.9-1.7-2-0.9-3.4l14.6-25.2h-0.1l-7.5,3.7
		l-0.4,0.7c-0.8,1.3-2,2.3-3.6,1.3c-1.5-0.9-1.4-2.5-0.7-3.8l0.4-0.7l-0.6-8.4h-0.1l-14.6,25.2c-0.8,1.4-1.8,1.8-3.4,0.9
		c-1.5-0.9-1.7-2-0.9-3.4l18-31.2l5.3,3.1l0.9,10.5L194.1,204.3z"/>
	<path class="st1" d="M232.9,236c0.8,1.4,0.6,2.5-0.9,3.4s-2.6,0.5-3.4-0.9l-18-31.2L225,199c3.4-2,8.1-1.5,10.3,2.3l1.7,3
		c2.3,4,0.2,8-3.3,10l-3.9,2.3l17.6,8.2c0.8,0.4,1.9,0.8,2.4,1.7c0.7,1.2,0.2,2.6-1,3.3c-0.9,0.5-1.7,0.3-2.6-0.1l-21.5-10l-1,0.6
		L232.9,236z M221.3,215.8l9.5-5.5c1.2-0.7,3-1.9,2-3.6l-1.7-3c-1-1.7-2.9-0.9-4.2-0.2l-9.5,5.5L221.3,215.8z"/>
	<path class="st7" d="M170.1,198.3l61.8-94.1c-63.8-52.6-163.7,0-163.7,0l-20,35.4l20,35.4c0,0,99.9,52.6,163.7,0l-61.8-94.1"/>
	<line class="st8" x1="170.1" y1="198.3" x2="231.9" y2="104.1"/>
	<circle class="st8" cx="156" cy="127" r="32.4"/>
	<g class="st1">
		<circle class="st9" cx="156" cy="127" r="26.7"/>
	</g>
	<polygon class="st7" points="31.3,161.5 51.7,139.5 31.3,117.5 	"/>
</g>
<g id="Fish_Kopie_Kopie" class="st0">
	<text transform="matrix(1 0 0 1 59.7117 237.6269)" class="st1 st5 st6">Mittelschicht Records</text>
	<path class="st1" d="M194.1,204.3l5.3,3.1l-18,31.2c-0.8,1.4-1.8,1.8-3.4,0.9c-1.5-0.9-1.7-2-0.9-3.4l14.6-25.2h-0.1l-7.5,3.7
		l-0.4,0.7c-0.8,1.3-2,2.3-3.6,1.3c-1.5-0.9-1.4-2.5-0.7-3.8l0.4-0.7l-0.6-8.4h-0.1l-14.6,25.2c-0.8,1.4-1.8,1.8-3.4,0.9
		c-1.5-0.9-1.7-2-0.9-3.4l18-31.2l5.3,3.1l0.9,10.5L194.1,204.3z"/>
	<path class="st1" d="M232.9,236c0.8,1.4,0.6,2.5-0.9,3.4s-2.6,0.5-3.4-0.9l-18-31.2L225,199c3.4-2,8.1-1.5,10.3,2.3l1.7,3
		c2.3,4,0.2,8-3.3,10l-3.9,2.3l17.6,8.2c0.8,0.4,1.9,0.8,2.4,1.7c0.7,1.2,0.2,2.6-1,3.3c-0.9,0.5-1.7,0.3-2.6-0.1l-21.5-10l-1,0.6
		L232.9,236z M221.3,215.8l9.5-5.5c1.2-0.7,3-1.9,2-3.6l-1.7-3c-1-1.7-2.9-0.9-4.2-0.2l-9.5,5.5L221.3,215.8z"/>
	<path class="st10" d="M170.1,198.3l61.8-94.1c-63.8-52.6-163.7,0-163.7,0l-20,35.4l20,35.4c0,0,99.9,52.6,163.7,0l-61.8-94.1"/>
	<line class="st8" x1="170.1" y1="198.3" x2="231.9" y2="104.1"/>
	<circle class="st8" cx="156" cy="127" r="32.4"/>
	<g class="st1">
		<circle class="st9" cx="156" cy="127" r="26.7"/>
	</g>
	<polygon class="st10" points="31.3,161.5 51.7,139.5 31.3,117.5 	"/>
</g>
<g id="Fish_Kopie_Kopie_Kopie" class="st0">
	<text transform="matrix(1 0 0 1 59.7117 237.6269)" class="st1 st5 st6">Mittelschicht Records</text>
	<path class="st1" d="M194.1,204.3l5.3,3.1l-18,31.2c-0.8,1.4-1.8,1.8-3.4,0.9c-1.5-0.9-1.7-2-0.9-3.4l14.6-25.2h-0.1l-7.5,3.7
		l-0.4,0.7c-0.8,1.3-2,2.3-3.6,1.3c-1.5-0.9-1.4-2.5-0.7-3.8l0.4-0.7l-0.6-8.4h-0.1l-14.6,25.2c-0.8,1.4-1.8,1.8-3.4,0.9
		c-1.5-0.9-1.7-2-0.9-3.4l18-31.2l5.3,3.1l0.9,10.5L194.1,204.3z"/>
	<path class="st1" d="M232.9,236c0.8,1.4,0.6,2.5-0.9,3.4s-2.6,0.5-3.4-0.9l-18-31.2L225,199c3.4-2,8.1-1.5,10.3,2.3l1.7,3
		c2.3,4,0.2,8-3.3,10l-3.9,2.3l17.6,8.2c0.8,0.4,1.9,0.8,2.4,1.7c0.7,1.2,0.2,2.6-1,3.3c-0.9,0.5-1.7,0.3-2.6-0.1l-21.5-10l-1,0.6
		L232.9,236z M221.3,215.8l9.5-5.5c1.2-0.7,3-1.9,2-3.6l-1.7-3c-1-1.7-2.9-0.9-4.2-0.2l-9.5,5.5L221.3,215.8z"/>
	<path class="st11" d="M170.1,198.3l61.8-94.1c-63.8-52.6-163.7,0-163.7,0l-20,35.4l20,35.4c0,0,99.9,52.6,163.7,0l-61.8-94.1"/>
	<line class="st8" x1="170.1" y1="198.3" x2="231.9" y2="104.1"/>
	<circle class="st8" cx="156" cy="127" r="32.4"/>
	<polygon class="st11" points="31.3,161.5 51.7,139.5 31.3,117.5 	"/>
</g>
<path d="M330.5,138.8L273.8,225c31.5-2,63.4-11.4,90.9-34L330.5,138.8z"/>
<path d="M263.8,52.6l-0.3-0.5v0.5c-76.6-4.8-150.4,34-150.4,34l-38.7,52.2l38.7,52.2c0,0,73.8,38.9,150.4,34v0.5l0.3-0.5l56.6-86.3
	l34.2-52.1C327.2,64,295.3,54.6,263.8,52.6z M242.8,168.1c-26.4,0-47.9-21.4-47.9-47.9s21.4-47.9,47.9-47.9s47.9,21.4,47.9,47.9
	S269.2,168.1,242.8,168.1z"/>
<polygon points="49.4,171.3 79.6,138.8 49.4,106.3 "/>
<circle cx="242.8" cy="120.3" r="38.6"/>
</svg>
