<?xml version="1.0" encoding="utf-8"?>
<!-- Generator: Adobe Illustrator 21.0.2, SVG Export Plug-In . SVG Version: 6.00 Build 0)  -->
<svg version="1.1" id="Ebene_1" xmlns="http://www.w3.org/2000/svg" xmlns:xlink="http://www.w3.org/1999/xlink" x="0px" y="0px"
	 viewBox="0 0 135 139" style="enable-background:new 0 0 135 139;" xml:space="preserve">
<style type="text/css">
	.st0{display:none;}
	.st1{display:inline;}
	.st2{fill:none;stroke:#FFFFFF;stroke-width:2;stroke-miterlimit:10;}
	.st3{display:inline;fill:#51BECA;stroke:#000000;stroke-width:3;stroke-miterlimit:10;}
	.st4{fill:#5BD2D8;}
	.st5{fill:none;stroke:#FFFFFF;stroke-width:4;stroke-miterlimit:10;}
</style>
<g id="Menue" class="st0">
	<g class="st1">
		<circle cx="149.4" cy="-419.4" r="38"/>
	</g>
	<g class="st1">
		<g>
			<line class="st2" x1="130.6" y1="-433.1" x2="167.7" y2="-433.1"/>
		</g>
		<g>
			<line class="st2" x1="131" y1="-419.6" x2="168.1" y2="-419.6"/>
		</g>
		<g>
			<line class="st2" x1="131" y1="-405.6" x2="168.1" y2="-405.6"/>
		</g>
	</g>
</g>
<g id="X" class="st0">
	<g class="st1">
		<circle cx="220.5" cy="-308.5" r="38"/>
	</g>
	<g class="st1">
		<g>
			<line class="st2" x1="200" y1="-288" x2="241" y2="-329"/>
		</g>
		<g>
			<line class="st2" x1="241" y1="-288" x2="200" y2="-329"/>
		</g>
	</g>
</g>
<g id="musik" class="st0">
	<circle class="st3" cx="-378.5" cy="-270" r="60"/>
	<g class="st1">
		<path d="M-378.5-311.5c-22.9,0-41.5,18.6-41.5,41.5s18.6,41.5,41.5,41.5S-337-247.1-337-270S-355.6-311.5-378.5-311.5z
			 M-378.5-231.3c-21.4,0-38.7-17.4-38.7-38.7c0-21.4,17.4-38.7,38.7-38.7s38.7,17.4,38.7,38.7S-357.1-231.3-378.5-231.3z"/>
		<path d="M-388-299.8c0.7-0.2,1.2-0.9,1-1.7c-0.2-0.7-0.9-1.2-1.7-1c-5.4,1.3-10.4,4.1-14.4,8s-6.7,8.9-8,14.4
			c-0.2,0.7,0.3,1.5,1,1.7c0.1,0,0.2,0,0.3,0c0.6,0,1.2-0.4,1.3-1.1c1.2-4.9,3.7-9.5,7.3-13C-397.4-296.1-392.9-298.6-388-299.8z"/>
		<path d="M-347-261.6c-0.7-0.2-1.5,0.3-1.7,1c-1.2,4.9-3.7,9.5-7.3,13s-8.1,6.1-13,7.3c-0.7,0.2-1.2,0.9-1,1.7
			c0.2,0.6,0.7,1.1,1.3,1.1c0.1,0,0.2,0,0.3,0c5.4-1.3,10.4-4.1,14.4-8s6.7-8.9,8-14.4C-345.8-260.7-346.3-261.4-347-261.6z"/>
		<path d="M-386.2-293.1c0.7-0.2,1.2-0.9,1-1.7c-0.2-0.7-0.9-1.2-1.7-1c-4.3,1-8.2,3.2-11.3,6.3c-3.1,3.1-5.3,7-6.3,11.3
			c-0.2,0.7,0.3,1.5,1,1.7c0.1,0,0.2,0,0.3,0c0.6,0,1.2-0.4,1.3-1.1c0.9-3.8,2.8-7.2,5.5-9.9C-393.4-290.4-389.9-292.3-386.2-293.1z
			"/>
		<path d="M-352.7-261.7c0.2-0.7-0.3-1.5-1-1.7s-1.5,0.3-1.7,1c-0.9,3.8-2.8,7.2-5.5,9.9s-6.2,4.6-9.9,5.5c-0.7,0.2-1.2,0.9-1,1.7
			c0.1,0.6,0.7,1.1,1.3,1.1c0.1,0,0.2,0,0.3,0c4.3-1,8.2-3.2,11.3-6.3C-355.8-253.5-353.7-257.4-352.7-261.7z"/>
		<path d="M-383.3-288.1c-0.2-0.7-0.9-1.2-1.6-1.1c-6.3,1.4-11.3,6.3-12.6,12.6c-0.2,0.7,0.3,1.5,1.1,1.6c0.1,0,0.2,0,0.3,0
			c0.6,0,1.2-0.4,1.4-1.1c1.1-5.3,5.3-9.4,10.5-10.5C-383.7-286.6-383.2-287.4-383.3-288.1z"/>
		<path d="M-359.4-263.5c0.2-0.7-0.3-1.5-1.1-1.6c-0.7-0.2-1.5,0.3-1.6,1.1c-1.1,5.3-5.3,9.4-10.5,10.5c-0.7,0.2-1.2,0.9-1.1,1.6
			c0.1,0.6,0.7,1.1,1.4,1.1c0.1,0,0.2,0,0.3,0C-365.7-252.3-360.7-257.2-359.4-263.5z"/>
		<path d="M-367.3-270c0-6.2-5-11.2-11.2-11.2s-11.2,5-11.2,11.2s5,11.2,11.2,11.2S-367.3-263.9-367.3-270z M-378.5-261.6
			c-4.6,0-8.4-3.8-8.4-8.4s3.8-8.4,8.4-8.4s8.4,3.8,8.4,8.4S-373.9-261.6-378.5-261.6z"/>
	</g>
</g>
<g id="video" class="st0">
	<circle class="st3" cx="-230" cy="-270" r="60"/>
	<g class="st1">
		<g>
			<path d="M-191.9-280.9c-0.6-0.3-1.2-0.3-1.8,0l-11.9,6.4v-5.5c0-1-0.8-1.8-1.8-1.8h-3c3.7-3,6.1-7.6,6.1-12.8
				c0-9.1-7.4-16.4-16.4-16.4c-7.7,0-14.2,5.4-16,12.6c-2.3-2.7-5.7-4.5-9.5-4.5c-6.8,0-12.4,5.6-12.4,12.4c0,3.4,1.4,6.5,3.6,8.7
				h-1.7c-1,0-1.8,0.8-1.8,1.8v8.3h-4.6c-1,0-1.8,0.8-1.8,1.8v7.2c0,1,0.8,1.8,1.8,1.8h4.6v8.3c0,1,0.8,1.8,1.8,1.8h21.6l-9.9,19.1
				c-0.5,0.9-0.1,2,0.8,2.5c0.3,0.1,0.6,0.2,0.8,0.2c0.7,0,1.3-0.4,1.6-1l9.7-18.6l9.7,18.6c0.3,0.6,1,1,1.6,1
				c0.3,0,0.6-0.1,0.8-0.2c0.9-0.5,1.2-1.6,0.8-2.5l-9.9-19.1h21.6c1,0,1.8-0.8,1.8-1.8v-5.5l11.9,6.4c0.3,0.1,0.6,0.2,0.9,0.2
				c0.3,0,0.7-0.1,0.9-0.3c0.6-0.3,0.9-0.9,0.9-1.6v-26.1C-191-280-191.3-280.6-191.9-280.9z M-258.5-264.5h-2.8v-3.5h2.8V-264.5z
				 M-220.7-307.4c7,0,12.8,5.7,12.8,12.8s-5.7,12.8-12.8,12.8c-7,0-12.8-5.7-12.8-12.8C-233.5-301.7-227.7-307.4-220.7-307.4z
				 M-234.7-286.1c1,1.6,2.2,3,3.7,4.2h-6.4C-236.3-283.1-235.3-284.5-234.7-286.1z M-246.2-299.3c4.8,0,8.7,3.9,8.7,8.7
				c0,4.8-3.9,8.7-8.7,8.7s-8.7-3.9-8.7-8.7C-255-295.4-251-299.3-246.2-299.3z M-209.2-271.5v10.4v6.7H-232l0,0l0,0l0,0h-22.8v-8.3
				v-7.2v-8.3h45.6L-209.2-271.5L-209.2-271.5z M-194.7-256.3l-10.9-5.9v-8.3l10.9-5.9V-256.3z"/>
		</g>
	</g>
	<g class="st1">
		<g>
			<path d="M-246.2-275.6c-3.1,0-5.6,2.5-5.6,5.6s2.5,5.6,5.6,5.6s5.6-2.5,5.6-5.6C-240.7-273.1-243.2-275.6-246.2-275.6z
				 M-246.2-267.7c-1.3,0-2.3-1-2.3-2.3s1-2.3,2.3-2.3s2.3,1,2.3,2.3C-244-268.8-245-267.7-246.2-267.7z"/>
		</g>
	</g>
	<g class="st1">
		<g>
			<path d="M-220.7-278c-4.4,0-8,3.6-8,8s3.6,8,8,8s8-3.6,8-8S-216.3-278-220.7-278z M-220.7-265.7c-2.4,0-4.3-1.9-4.3-4.3
				s1.9-4.3,4.3-4.3c2.4,0,4.3,1.9,4.3,4.3S-218.3-265.7-220.7-265.7z"/>
		</g>
	</g>
	<g class="st1">
		<g>
			<path d="M-226.6-276.6h-19.9c-1,0-1.7,0.8-1.7,1.7v9.7c0,1,0.8,1.7,1.7,1.7h19.9c1,0,1.7-0.8,1.7-1.7v-9.7
				C-224.9-275.8-225.7-276.6-226.6-276.6z M-228.4-266.9h-16.4v-6.2h16.4V-266.9L-228.4-266.9z"/>
		</g>
	</g>
	<g class="st1">
		<g>
			<circle cx="-217" cy="-270" r="1.8"/>
		</g>
	</g>
	<g class="st1">
		<g>
			<circle cx="-217" cy="-270" r="1.8"/>
		</g>
	</g>
</g>
<g id="fotos" class="st0">
	<circle class="st3" cx="-78.4" cy="-268" r="60"/>
	<g class="st1">
		<path d="M-45.6-286.9h-11.1l-5.2-13h-33l-5.2,13h-1.7v-6.5h-7.8v6.5h-1.6c-3.4,0-6.2,2.8-6.2,6.2v38.2c0,3.5,2.8,6.3,6.3,6.3h65.4
			c3.5,0,6.3-2.8,6.3-6.3v-38.2C-39.4-284.1-42.2-286.9-45.6-286.9z M-107-290.8h2.6v3.9h-2.6V-290.8z M-42-242.5
			c0,2-1.7,3.7-3.7,3.7h-65.4c-2,0-3.7-1.7-3.7-3.7v-38.2c0-2,1.6-3.6,3.6-3.6h1.6h7.8h3.5l5.2-13h29.4l5.2,13h12.8
			c2,0,3.6,1.6,3.6,3.6L-42-242.5L-42-242.5z"/>
		<path d="M-78.4-288.2c-12.9,0-23.4,10.5-23.4,23.4s10.5,23.4,23.4,23.4S-55-251.9-55-264.8C-55-277.7-65.5-288.2-78.4-288.2z
			 M-78.4-244c-11.5,0-20.8-9.3-20.8-20.8c0-11.5,9.3-20.8,20.8-20.8s20.8,9.3,20.8,20.8C-57.6-253.3-66.9-244-78.4-244z"/>
		<path d="M-78.4-280.4c-8.6,0-15.6,7-15.6,15.6s7,15.6,15.6,15.6s15.6-7,15.6-15.6C-62.8-273.4-69.8-280.4-78.4-280.4z
			 M-78.4-251.8c-7.2,0-13-5.8-13-13c0-7.2,5.8-13,13-13s13,5.8,13,13C-65.4-257.6-71.2-251.8-78.4-251.8z"/>
		<path d="M-49.8-281.7c-2.9,0-5.2,2.3-5.2,5.2s2.3,5.2,5.2,5.2s5.2-2.3,5.2-5.2S-46.9-281.7-49.8-281.7z M-49.8-273.9
			c-1.4,0-2.6-1.2-2.6-2.6s1.2-2.6,2.6-2.6c1.4,0,2.6,1.2,2.6,2.6S-48.4-273.9-49.8-273.9z"/>
	</g>
</g>
<g id="shoping" class="st0">
	<circle class="st3" cx="70" cy="-270" r="60"/>
	<g class="st1">
		<path d="M50.4-258.4h40.5c4.6,0,8.3-3.7,8.3-8.3v-17c0,0,0,0,0-0.1v-0.1v-0.1v-0.1v-0.1v-0.1v-0.1v-0.1v-0.1v-0.1v-0.1
			c0,0,0,0,0-0.1c0,0,0-0.1-0.1-0.1c0,0,0,0-0.1-0.1c0,0,0,0-0.1-0.1s0,0-0.1-0.1c0,0,0,0-0.1-0.1c0,0,0,0-0.1-0.1c0,0,0,0-0.1-0.1
			c0,0-0.1,0-0.1-0.1c0,0,0,0-0.1,0c0,0-0.1,0-0.1-0.1h-0.1H98h-0.1h-0.1h-0.1h-0.1h-0.1c0,0,0,0-0.1,0l-51.3-7.1v-7.2
			c0-0.1,0-0.2,0-0.2s0,0,0-0.1v-0.1v-0.1c0,0,0,0,0-0.1v-0.1c0,0,0,0,0-0.1c0,0,0-0.1-0.1-0.1c0,0,0,0,0-0.1c0,0,0-0.1-0.1-0.1
			c0,0,0,0,0-0.1c0,0,0,0,0-0.1s0-0.1-0.1-0.1l0,0l-0.1-0.1l0,0l-0.1-0.1c0,0,0,0-0.1,0c0,0-0.1,0-0.1-0.1l-0.1-0.1l0,0
			c-0.1,0-0.1-0.1-0.2-0.1L34-306.7c-1-0.4-2.2,0-2.7,1.1c-0.4,1,0,2.2,1.1,2.7l9.9,4.2v9.2v1.5v11.2v10v12.7c0,4.2,3.2,7.7,7.3,8.3
			c-0.7,1.2-1.2,2.7-1.2,4.2c0,4.5,3.7,8.2,8.2,8.2s8.2-3.7,8.2-8.2c0-1.5-0.4-2.9-1.1-4.2H82c-0.7,1.2-1.1,2.6-1.1,4.2
			c0,4.5,3.7,8.2,8.2,8.2s8.2-3.7,8.2-8.2s-3.7-8.2-8.2-8.2H50.4c-2.4,0-4.3-1.9-4.3-4.3v-5.5C47.4-258.8,48.9-258.4,50.4-258.4z
			 M60.6-241.5c0,2.3-1.9,4.2-4.2,4.2s-4.2-1.9-4.2-4.2s1.9-4.2,4.2-4.2S60.6-243.8,60.6-241.5z M93.1-241.5c0,2.3-1.9,4.2-4.2,4.2
			s-4.2-1.9-4.2-4.2s1.9-4.2,4.2-4.2S93.1-243.8,93.1-241.5z M90.9-262.5H50.4c-2.4,0-4.3-1.9-4.3-4.3v-10V-288v-0.8l49,6.7v15.3
			C95.2-264.4,93.3-262.5,90.9-262.5z"/>
	</g>
</g>
<circle class="st4" cx="68.5" cy="70.5" r="60"/>
<g>
	<path class="st5" d="M87.4,34.6H77.3c-11.3,0-18.6,7.5-18.6,19.1v8.8h-10c-0.9,0-1.6,0.7-1.6,1.6v12.7c0,0.9,0.7,1.6,1.6,1.6h10.1
		v32.2c0,0.9,0.7,1.6,1.6,1.6h13.2c0.9,0,1.6-0.7,1.6-1.6V78.4H87c0.9,0,1.6-0.7,1.6-1.6V64.1c0-0.4-0.2-0.8-0.5-1.1
		s-0.7-0.5-1.1-0.5H75.1V55c0-3.6,0.9-5.4,5.5-5.4h6.8c0.9,0,1.6-0.7,1.6-1.6V36.2C89,35.3,88.3,34.6,87.4,34.6z"/>
</g>
</svg>
