<?xml version="1.0" encoding="utf-8"?>
<!-- Generator: Adobe Illustrator 21.0.2, SVG Export Plug-In . SVG Version: 6.00 Build 0)  -->
<svg version="1.1" xmlns="http://www.w3.org/2000/svg" xmlns:xlink="http://www.w3.org/1999/xlink" x="0px" y="0px"
	 viewBox="0 0 135 139" style="enable-background:new 0 0 135 139;" xml:space="preserve">
<style type="text/css">
	.st0{display:none;}
	.st1{display:inline;}
	.st2{fill:none;stroke:#FFFFFF;stroke-width:2;stroke-miterlimit:10;}
	.st3{display:inline;fill:#51BECA;stroke:#000000;stroke-width:3;stroke-miterlimit:10;}
	.st4{fill:none;stroke:#FFFFFF;stroke-width:4;stroke-miterlimit:10;}
	.st5{display:inline;fill:#5BD2D8;}
	.st6{fill:#FFFFFF;}
	.st7{fill:#5BD2D8;}
</style>
<g id="Menue" class="st0">
	<g class="st1">
		<circle cx="149.4" cy="-419.4" r="38"/>
	</g>
	<g class="st1">
		<g>
			<line class="st2" x1="130.6" y1="-433.1" x2="167.7" y2="-433.1"/>
		</g>
		<g>
			<line class="st2" x1="131" y1="-419.6" x2="168.1" y2="-419.6"/>
		</g>
		<g>
			<line class="st2" x1="131" y1="-405.6" x2="168.1" y2="-405.6"/>
		</g>
	</g>
</g>
<g id="X" class="st0">
	<g class="st1">
		<circle cx="220.5" cy="-308.5" r="38"/>
	</g>
	<g class="st1">
		<g>
			<line class="st2" x1="200" y1="-288" x2="241" y2="-329"/>
		</g>
		<g>
			<line class="st2" x1="241" y1="-288" x2="200" y2="-329"/>
		</g>
	</g>
</g>
<g id="musik" class="st0">
	<circle class="st3" cx="-378.5" cy="-270" r="60"/>
	<g class="st1">
		<path d="M-378.5-311.5c-22.9,0-41.5,18.6-41.5,41.5c0,22.9,18.6,41.5,41.5,41.5S-337-247.1-337-270
			C-337-292.9-355.6-311.5-378.5-311.5z M-378.5-231.3c-21.4,0-38.7-17.4-38.7-38.7c0-21.4,17.4-38.7,38.7-38.7s38.7,17.4,38.7,38.7
			C-339.8-248.7-357.1-231.3-378.5-231.3z"/>
		<path d="M-388-299.8c0.7-0.2,1.2-0.9,1-1.7c-0.2-0.7-0.9-1.2-1.7-1c-5.4,1.3-10.4,4.1-14.4,8s-6.7,8.9-8,14.4
			c-0.2,0.7,0.3,1.5,1,1.7c0.1,0,0.2,0,0.3,0c0.6,0,1.2-0.4,1.3-1.1c1.2-4.9,3.7-9.5,7.3-13C-397.4-296.1-392.9-298.6-388-299.8z"/>
		<path d="M-347-261.6c-0.7-0.2-1.5,0.3-1.7,1c-1.2,4.9-3.7,9.5-7.3,13s-8.1,6.1-13,7.3c-0.7,0.2-1.2,0.9-1,1.7
			c0.2,0.6,0.7,1.1,1.3,1.1c0.1,0,0.2,0,0.3,0c5.4-1.3,10.4-4.1,14.4-8s6.7-8.9,8-14.4C-345.8-260.7-346.3-261.4-347-261.6z"/>
		<path d="M-386.2-293.1c0.7-0.2,1.2-0.9,1-1.7c-0.2-0.7-0.9-1.2-1.7-1c-4.3,1-8.2,3.2-11.3,6.3c-3.1,3.1-5.3,7-6.3,11.3
			c-0.2,0.7,0.3,1.5,1,1.7c0.1,0,0.2,0,0.3,0c0.6,0,1.2-0.4,1.3-1.1c0.9-3.8,2.8-7.2,5.5-9.9C-393.4-290.4-389.9-292.3-386.2-293.1z
			"/>
		<path d="M-352.7-261.7c0.2-0.7-0.3-1.5-1-1.7c-0.7-0.2-1.5,0.3-1.7,1c-0.9,3.8-2.8,7.2-5.5,9.9c-2.7,2.7-6.2,4.6-9.9,5.5
			c-0.7,0.2-1.2,0.9-1,1.7c0.1,0.6,0.7,1.1,1.3,1.1c0.1,0,0.2,0,0.3,0c4.3-1,8.2-3.2,11.3-6.3C-355.8-253.5-353.7-257.4-352.7-261.7
			z"/>
		<path d="M-383.3-288.1c-0.2-0.7-0.9-1.2-1.6-1.1c-6.3,1.4-11.3,6.3-12.6,12.6c-0.2,0.7,0.3,1.5,1.1,1.6c0.1,0,0.2,0,0.3,0
			c0.6,0,1.2-0.4,1.4-1.1c1.1-5.3,5.3-9.4,10.5-10.5C-383.7-286.6-383.2-287.4-383.3-288.1z"/>
		<path d="M-359.4-263.5c0.2-0.7-0.3-1.5-1.1-1.6c-0.7-0.2-1.5,0.3-1.6,1.1c-1.1,5.3-5.3,9.4-10.5,10.5c-0.7,0.2-1.2,0.9-1.1,1.6
			c0.1,0.6,0.7,1.1,1.4,1.1c0.1,0,0.2,0,0.3,0C-365.7-252.3-360.7-257.2-359.4-263.5z"/>
		<path d="M-367.3-270c0-6.2-5-11.2-11.2-11.2s-11.2,5-11.2,11.2s5,11.2,11.2,11.2S-367.3-263.9-367.3-270z M-378.5-261.6
			c-4.6,0-8.4-3.8-8.4-8.4s3.8-8.4,8.4-8.4s8.4,3.8,8.4,8.4S-373.9-261.6-378.5-261.6z"/>
	</g>
</g>
<g id="video" class="st0">
	<circle class="st3" cx="-230" cy="-270" r="60"/>
	<g class="st1">
		<g>
			<path d="M-191.9-280.9c-0.6-0.3-1.2-0.3-1.8,0l-11.9,6.4v-5.5c0-1-0.8-1.8-1.8-1.8h-3c3.7-3,6.1-7.6,6.1-12.8
				c0-9.1-7.4-16.4-16.4-16.4c-7.7,0-14.2,5.4-16,12.6c-2.3-2.7-5.7-4.5-9.5-4.5c-6.8,0-12.4,5.6-12.4,12.4c0,3.4,1.4,6.5,3.6,8.7
				h-1.7c-1,0-1.8,0.8-1.8,1.8v8.3h-4.6c-1,0-1.8,0.8-1.8,1.8v7.2c0,1,0.8,1.8,1.8,1.8h4.6v8.3c0,1,0.8,1.8,1.8,1.8h21.6l-9.9,19.1
				c-0.5,0.9-0.1,2,0.8,2.5c0.3,0.1,0.6,0.2,0.8,0.2c0.7,0,1.3-0.4,1.6-1l9.7-18.6l9.7,18.6c0.3,0.6,1,1,1.6,1
				c0.3,0,0.6-0.1,0.8-0.2c0.9-0.5,1.2-1.6,0.8-2.5l-9.9-19.1h21.6c1,0,1.8-0.8,1.8-1.8v-5.5l11.9,6.4c0.3,0.1,0.6,0.2,0.9,0.2
				c0.3,0,0.7-0.1,0.9-0.3c0.6-0.3,0.9-0.9,0.9-1.6v-26.1C-191-280-191.3-280.6-191.9-280.9z M-258.5-264.5h-2.8v-3.5h2.8V-264.5z
				 M-220.7-307.4c7,0,12.8,5.7,12.8,12.8s-5.7,12.8-12.8,12.8c-7,0-12.8-5.7-12.8-12.8C-233.5-301.7-227.7-307.4-220.7-307.4z
				 M-234.7-286.1c1,1.6,2.2,3,3.7,4.2h-6.4C-236.3-283.1-235.3-284.5-234.7-286.1z M-246.2-299.3c4.8,0,8.7,3.9,8.7,8.7
				c0,4.8-3.9,8.7-8.7,8.7c-4.8,0-8.7-3.9-8.7-8.7C-255-295.4-251-299.3-246.2-299.3z M-209.2-271.5v10.4v6.7H-232c0,0,0,0,0,0h0
				c0,0,0,0,0,0h-22.8v-8.3v-7.2v-8.3h45.6V-271.5z M-194.7-256.3l-10.9-5.9v-8.3l10.9-5.9V-256.3z"/>
		</g>
	</g>
	<g class="st1">
		<g>
			<path d="M-246.2-275.6c-3.1,0-5.6,2.5-5.6,5.6c0,3.1,2.5,5.6,5.6,5.6c3.1,0,5.6-2.5,5.6-5.6
				C-240.7-273.1-243.2-275.6-246.2-275.6z M-246.2-267.7c-1.3,0-2.3-1-2.3-2.3c0-1.3,1-2.3,2.3-2.3c1.3,0,2.3,1,2.3,2.3
				C-244-268.8-245-267.7-246.2-267.7z"/>
		</g>
	</g>
	<g class="st1">
		<g>
			<path d="M-220.7-278c-4.4,0-8,3.6-8,8c0,4.4,3.6,8,8,8c4.4,0,8-3.6,8-8C-212.7-274.4-216.3-278-220.7-278z M-220.7-265.7
				c-2.4,0-4.3-1.9-4.3-4.3c0-2.4,1.9-4.3,4.3-4.3c2.4,0,4.3,1.9,4.3,4.3S-218.3-265.7-220.7-265.7z"/>
		</g>
	</g>
	<g class="st1">
		<g>
			<path d="M-226.6-276.6h-19.9c-1,0-1.7,0.8-1.7,1.7v9.7c0,1,0.8,1.7,1.7,1.7h19.9c1,0,1.7-0.8,1.7-1.7v-9.7
				C-224.9-275.8-225.7-276.6-226.6-276.6z M-228.4-266.9h-16.4v-6.2h16.4L-228.4-266.9L-228.4-266.9z"/>
		</g>
	</g>
	<g class="st1">
		<g>
			<circle cx="-217" cy="-270" r="1.8"/>
		</g>
	</g>
	<g class="st1">
		<g>
			<circle cx="-217" cy="-270" r="1.8"/>
		</g>
	</g>
</g>
<g id="fotos" class="st0">
	<circle class="st3" cx="-78.4" cy="-268" r="60"/>
	<g class="st1">
		<path d="M-45.6-286.9h-11.1l-5.2-13h-33l-5.2,13h-1.7v-6.5h-7.8v6.5h-1.6c-3.4,0-6.2,2.8-6.2,6.2v38.2c0,3.5,2.8,6.3,6.3,6.3h65.4
			c3.5,0,6.3-2.8,6.3-6.3v-38.2C-39.4-284.1-42.2-286.9-45.6-286.9z M-107-290.8h2.6v3.9h-2.6V-290.8z M-42-242.5
			c0,2-1.7,3.7-3.7,3.7h-65.4c-2,0-3.7-1.7-3.7-3.7v-38.2c0-2,1.6-3.6,3.6-3.6h1.6h7.8h3.5l5.2-13h29.4l5.2,13h12.8
			c2,0,3.6,1.6,3.6,3.6L-42-242.5L-42-242.5z"/>
		<path d="M-78.4-288.2c-12.9,0-23.4,10.5-23.4,23.4c0,12.9,10.5,23.4,23.4,23.4S-55-251.9-55-264.8
			C-55-277.7-65.5-288.2-78.4-288.2z M-78.4-244c-11.5,0-20.8-9.3-20.8-20.8c0-11.5,9.3-20.8,20.8-20.8s20.8,9.3,20.8,20.8
			C-57.6-253.3-66.9-244-78.4-244z"/>
		<path d="M-78.4-280.4c-8.6,0-15.6,7-15.6,15.6c0,8.6,7,15.6,15.6,15.6s15.6-7,15.6-15.6C-62.8-273.4-69.8-280.4-78.4-280.4z
			 M-78.4-251.8c-7.2,0-13-5.8-13-13c0-7.2,5.8-13,13-13s13,5.8,13,13C-65.4-257.6-71.2-251.8-78.4-251.8z"/>
		<path d="M-49.8-281.7c-2.9,0-5.2,2.3-5.2,5.2s2.3,5.2,5.2,5.2c2.9,0,5.2-2.3,5.2-5.2S-46.9-281.7-49.8-281.7z M-49.8-273.9
			c-1.4,0-2.6-1.2-2.6-2.6s1.2-2.6,2.6-2.6c1.4,0,2.6,1.2,2.6,2.6S-48.4-273.9-49.8-273.9z"/>
	</g>
</g>
<g id="shoping" class="st0">
	<circle class="st3" cx="70" cy="-270" r="60"/>
	<g class="st1">
		<path d="M50.4-258.4h40.5c4.6,0,8.3-3.7,8.3-8.3v-17c0,0,0,0,0-0.1c0,0,0-0.1,0-0.1c0,0,0-0.1,0-0.1c0,0,0-0.1,0-0.1s0-0.1,0-0.1
			c0,0,0-0.1,0-0.1c0,0,0-0.1,0-0.1c0,0,0-0.1,0-0.1s0-0.1,0-0.1c0,0,0-0.1,0-0.1c0,0,0-0.1,0-0.1c0,0,0,0,0-0.1c0,0,0-0.1-0.1-0.1
			c0,0,0,0-0.1-0.1c0,0,0,0-0.1-0.1s0,0-0.1-0.1c0,0,0,0-0.1-0.1c0,0,0,0-0.1-0.1c0,0,0,0-0.1-0.1c0,0-0.1,0-0.1-0.1c0,0,0,0-0.1,0
			c0,0-0.1,0-0.1-0.1c0,0-0.1,0-0.1,0c0,0-0.1,0-0.1,0c0,0-0.1,0-0.1,0c0,0-0.1,0-0.1,0c0,0-0.1,0-0.1,0c0,0-0.1,0-0.1,0
			c0,0-0.1,0-0.1,0c0,0,0,0-0.1,0l-51.3-7.1v-7.2c0-0.1,0-0.2,0-0.2c0,0,0,0,0-0.1c0,0,0-0.1,0-0.1c0,0,0-0.1,0-0.1c0,0,0,0,0-0.1
			c0,0,0-0.1,0-0.1c0,0,0,0,0-0.1c0,0,0-0.1-0.1-0.1c0,0,0,0,0-0.1c0,0,0-0.1-0.1-0.1c0,0,0,0,0-0.1c0,0,0,0,0-0.1s0-0.1-0.1-0.1
			c0,0,0,0,0,0c0,0-0.1-0.1-0.1-0.1c0,0,0,0,0,0c0,0-0.1-0.1-0.1-0.1c0,0,0,0-0.1,0c0,0-0.1,0-0.1-0.1c0,0-0.1-0.1-0.1-0.1
			c0,0,0,0,0,0c-0.1,0-0.1-0.1-0.2-0.1l-11.1-4.7c-1-0.4-2.2,0-2.7,1.1c-0.4,1,0,2.2,1.1,2.7l9.9,4.2v9.2v1.5v11.2v10v12.7
			c0,4.2,3.2,7.7,7.3,8.3c-0.7,1.2-1.2,2.7-1.2,4.2c0,4.5,3.7,8.2,8.2,8.2s8.2-3.7,8.2-8.2c0-1.5-0.4-2.9-1.1-4.2h18.3
			c-0.7,1.2-1.1,2.6-1.1,4.2c0,4.5,3.7,8.2,8.2,8.2c4.5,0,8.2-3.7,8.2-8.2c0-4.5-3.7-8.2-8.2-8.2H50.4c-2.4,0-4.3-1.9-4.3-4.3v-5.5
			C47.4-258.8,48.9-258.4,50.4-258.4z M60.6-241.5c0,2.3-1.9,4.2-4.2,4.2s-4.2-1.9-4.2-4.2c0-2.3,1.9-4.2,4.2-4.2
			S60.6-243.8,60.6-241.5z M93.1-241.5c0,2.3-1.9,4.2-4.2,4.2s-4.2-1.9-4.2-4.2c0-2.3,1.9-4.2,4.2-4.2S93.1-243.8,93.1-241.5z
			 M90.9-262.5H50.4c-2.4,0-4.3-1.9-4.3-4.3v-10V-288v-0.8l49,6.7v15.3C95.2-264.4,93.3-262.5,90.9-262.5z"/>
	</g>
</g>
<g id="facebook" class="st0">
	<circle class="st1" cx="68.5" cy="70.5" r="60"/>
	<g class="st1">
		<path class="st4" d="M87.4,34.6l-10.1,0c-11.3,0-18.6,7.5-18.6,19.1v8.8H48.7c-0.9,0-1.6,0.7-1.6,1.6v12.7c0,0.9,0.7,1.6,1.6,1.6
			h10.1v32.2c0,0.9,0.7,1.6,1.6,1.6h13.2c0.9,0,1.6-0.7,1.6-1.6V78.4h11.8c0.9,0,1.6-0.7,1.6-1.6l0-12.7c0-0.4-0.2-0.8-0.5-1.1
			c-0.3-0.3-0.7-0.5-1.1-0.5H75.1V55c0-3.6,0.9-5.4,5.5-5.4l6.8,0c0.9,0,1.6-0.7,1.6-1.6V36.2C89,35.3,88.3,34.6,87.4,34.6z"/>
	</g>
</g>
<g id="Ebene_8" class="st0">
	<circle class="st5" cx="68.5" cy="70.5" r="60"/>
	<g class="st1">
		<path id="YouTube" class="st6" d="M89.1,86.6h-3.8l0-2.2c0-1,0.8-1.8,1.8-1.8h0.2c1,0,1.8,0.8,1.8,1.8L89.1,86.6z M74.8,81.9
			c-1,0-1.8,0.7-1.8,1.4v10.8c0,0.8,0.8,1.4,1.8,1.4c1,0,1.8-0.6,1.8-1.4V83.3C76.6,82.5,75.8,81.9,74.8,81.9z M98.1,75.8v20.5
			c0,4.9-4.3,9-9.5,9h-39c-5.2,0-9.5-4-9.5-9V75.8c0-4.9,4.3-9,9.5-9h39C93.8,66.9,98.1,70.9,98.1,75.8z M52.2,98.6l0-21.6l4.8,0
			v-3.2l-12.9,0v3.1l4,0v21.7H52.2z M66.7,80.2h-4v11.5c0,1.7,0.1,2.5,0,2.8c-0.3,0.9-1.8,1.8-2.4,0.1c-0.1-0.3,0-1.2,0-2.8l0-11.6
			h-4l0,11.4c0,1.8,0,3.1,0,3.7c0.1,1,0.1,2.3,1,3c1.8,1.3,5.3-0.2,6.2-2.1l0,2.4l3.2,0L66.7,80.2L66.7,80.2z M79.6,93.4l0-9.6
			c0-3.7-2.7-5.9-6.5-2.9l0-7.1l-4,0l0,24.7l3.3,0l0.3-1.5C76.9,100.7,79.6,98.1,79.6,93.4z M92.2,92.1l-3,0c0,0.1,0,0.3,0,0.4v1.7
			c0,0.9-0.7,1.6-1.7,1.6h-0.6c-0.9,0-1.7-0.7-1.7-1.6V94v-1.9v-2.4h6.9v-2.6c0-1.9,0-3.8-0.2-4.9c-0.5-3.4-5.3-4-7.8-2.2
			c-0.8,0.6-1.4,1.3-1.7,2.3c-0.3,1-0.5,2.3-0.5,4.1v5.7C82,101.7,93.6,100.3,92.2,92.1z M76.7,61c0.2,0.5,0.5,0.9,1,1.2
			c0.4,0.3,1,0.5,1.7,0.5c0.6,0,1.1-0.2,1.5-0.5c0.4-0.3,0.8-0.8,1.1-1.4l-0.1,1.6h4.5V43.2h-3.5v14.9c0,0.8-0.7,1.5-1.5,1.5
			c-0.8,0-1.5-0.7-1.5-1.5V43.2h-3.7v12.9c0,1.6,0,2.7,0.1,3.3C76.3,60,76.5,60.5,76.7,61z M63,50.2c0-1.8,0.2-3.3,0.5-4.3
			c0.3-1,0.9-1.9,1.7-2.5c0.8-0.6,1.8-0.9,3-0.9c1,0,1.9,0.2,2.7,0.6c0.7,0.4,1.3,0.9,1.7,1.6c0.4,0.6,0.7,1.3,0.8,2
			c0.2,0.7,0.2,1.7,0.2,3.1v4.8c0,1.8-0.1,3.1-0.2,3.9c-0.1,0.8-0.4,1.6-0.9,2.3c-0.4,0.7-1,1.2-1.7,1.6c-0.7,0.3-1.5,0.5-2.4,0.5
			c-1,0-1.9-0.1-2.6-0.4c-0.7-0.3-1.3-0.7-1.7-1.3c-0.4-0.6-0.7-1.3-0.8-2.1C63.1,58.2,63,57,63,55.3L63,50.2L63,50.2z M66.6,57.8
			c0,1.1,0.8,2,1.8,2c1,0,1.8-0.9,1.8-2V47.6c0-1.1-0.8-2-1.8-2c-1,0-1.8,0.9-1.8,2V57.8z M54.1,62.9h4.2l0-14.7l5-12.6h-4.6
			l-2.7,9.3l-2.7-9.4h-4.6l5.3,12.6L54.1,62.9z"/>
	</g>
</g>
<g id="Ebene_9" class="st0">
	<circle class="st5" cx="68.5" cy="70.5" r="60"/>
	<g class="st1">
		<g id="Instagram">
			<path class="st6" d="M45.5,56.8c-0.7,0-1.2-0.6-1.2-1.2V44.2c0-0.7,0.6-1.2,1.2-1.2c0.7,0,1.2,0.6,1.2,1.2v11.2
				C46.7,56.2,46.2,56.8,45.5,56.8z"/>
			<path class="st6" d="M49.7,56.8c-0.7,0-1.2-0.6-1.2-1.2V43.3c0-0.7,0.6-1.2,1.2-1.2c0.7,0,1.2,0.6,1.2,1.2v12.2
				C50.9,56.2,50.4,56.8,49.7,56.8z"/>
			<path class="st6" d="M53.9,56.8c-0.7,0-1.2-0.6-1.2-1.2V43.3c0-0.7,0.6-1.2,1.2-1.2c0.7,0,1.2,0.6,1.2,1.2v12.2
				C55.2,56.2,54.6,56.8,53.9,56.8z"/>
			<path class="st6" d="M85.1,100.5H53.4c-9.5,0-14.9-5-14.9-13.7V55.7c0-9.1,5.3-15.2,13.3-15.2h34.5c5.9,0,12.2,5.7,12.2,14.8
				v31.4C98.5,94.4,92.6,100.5,85.1,100.5z M51.8,43c-8,0-10.8,6.8-10.8,12.7v31.2C41,96.1,47.7,98,53.4,98h31.7
				C91.3,98,96,93.1,96,86.6V55.3c0-7.6-5.1-12.3-9.7-12.3H51.8z"/>
			<path class="st6" d="M68.5,59.6c-5.3,0-9.6,4.3-9.6,9.6s4.3,9.6,9.6,9.6c5.3,0,9.6-4.3,9.6-9.6S73.8,59.6,68.5,59.6z M68.5,73.9
				c-2.6,0-4.8-2.1-4.8-4.8c0-2.6,2.1-4.8,4.8-4.8c2.6,0,4.8,2.1,4.8,4.8C73.3,71.8,71.1,73.9,68.5,73.9z"/>
			<path class="st6" d="M68.5,84.4c-8.4,0-15.2-6.8-15.2-15.2s6.8-15.2,15.2-15.2s15.2,6.8,15.2,15.2S76.9,84.4,68.5,84.4z
				 M68.5,56.4c-7,0-12.7,5.7-12.7,12.7s5.7,12.7,12.7,12.7s12.7-5.7,12.7-12.7S75.5,56.4,68.5,56.4z"/>
			<rect x="79.7" y="59.2" class="st6" width="17.5" height="2.7"/>
			<rect x="40.4" y="59.2" class="st6" width="16.6" height="2.6"/>
			<path class="st6" d="M90.2,53.2c0,1.5-1.2,2.8-2.8,2.8h-4.1c-1.5,0-2.8-1.2-2.8-2.8v-4.1c0-1.5,1.2-2.8,2.8-2.8h4.1
				c1.5,0,2.8,1.2,2.8,2.8V53.2z"/>
		</g>
	</g>
</g>
<g id="Ebene_10">
	<circle class="st7" cx="68.5" cy="70.5" r="60"/>
	<path class="st6" d="M68.5,37.3c10.4,0,19.1,8.7,19.1,19.1c0,2.4,0.1,4.7,0.2,6.8c0.1,1.3,1.2,2.2,2.4,2.2c0.2,0,0.4,0,0.5-0.1
		l3.3-0.8c0.1,0,0.3,0,0.4,0c0.8,0,1.6,0.6,1.8,1.4c0.3,1.2-0.4,2.4-1.6,2.8l-5,2c-1.3,0.5-1.9,1.9-1.6,3.2
		c4,14.7,15.1,13.2,15.1,15.1c0,2.4-8.4,2.7-9.1,3.5s0,4.4-1.7,5.1c-0.3,0.1-0.8,0.2-1.3,0.2c-1.3,0-3.1-0.2-5-0.2
		c-1.6,0-3.4,0.2-4.9,0.9c-4,1.9-7.9,5.3-12.7,5.3c-4.8,0-8.7-3.5-12.7-5.3c-1.5-0.7-3.2-0.9-4.9-0.9c-1.9,0-3.7,0.2-5,0.2
		c-0.6,0-1,0-1.3-0.2c-1.7-0.7-1-4.4-1.7-5.1s-9.1-1.1-9.1-3.5c0-1.9,11.1-0.4,15.1-15.1c0.4-1.3-0.3-2.7-1.6-3.2l-5-2
		c-1.1-0.4-1.8-1.6-1.6-2.8c0.2-0.8,0.9-1.4,1.8-1.4c0.1,0,0.3,0,0.4,0l3.3,0.8c0.2,0,0.4,0.1,0.5,0.1c1.2,0,2.3-0.9,2.4-2.2
		c0.1-2.1,0.2-4.3,0.2-6.8C49.4,45.9,58,37.3,68.5,37.3 M68.5,33.1L68.5,33.1L68.5,33.1c-3.1,0-6.1,0.6-9,1.9
		c-2.8,1.2-5.2,2.9-7.4,5c-2.1,2.1-3.8,4.6-5,7.4c-1.2,2.9-1.8,5.9-1.8,9c0,1.5,0,3-0.1,4.4L44,60.5c-0.4-0.1-0.9-0.2-1.4-0.2
		c-1.3,0-2.6,0.4-3.7,1.3c-1.1,0.8-1.9,2.1-2.2,3.4c-0.7,3.2,1.1,6.4,4.1,7.6l3.6,1.5c-2.4,7.4-6.9,8.8-9.8,9.8
		c-0.8,0.3-1.5,0.5-2.1,0.8c-2.6,1.3-2.9,3.5-2.9,4.4c0,1.7,0.8,3.2,2.2,4.3c0.7,0.6,1.6,1,2.7,1.4c1.5,0.5,3.3,0.9,4.7,1.1
		c0.1,0.5,0.2,1.1,0.3,1.7c0.7,2.4,2.2,3.5,3.3,3.9c1.1,0.5,2.2,0.5,2.9,0.5c0.7,0,1.5-0.1,2.3-0.1c0.9-0.1,1.8-0.1,2.7-0.1
		c1.4,0,2.4,0.2,3.1,0.5c1,0.5,2.1,1.1,3.2,1.8c3.1,1.8,6.7,3.9,11.2,3.9c4.5,0,8.1-2.1,11.2-3.9c1.1-0.7,2.2-1.3,3.2-1.8
		c0.7-0.3,1.8-0.5,3.1-0.5c0.9,0,1.8,0.1,2.7,0.1c0.8,0.1,1.6,0.1,2.3,0.1c0.7,0,1.9-0.1,2.9-0.5c1.1-0.5,2.6-1.5,3.3-3.9
		c0.2-0.6,0.3-1.1,0.3-1.7c1.4-0.3,3.2-0.6,4.7-1.1c1.1-0.4,2-0.8,2.7-1.4c1.4-1.1,2.2-2.6,2.2-4.3c0-0.9-0.3-3.1-2.9-4.4
		c-0.7-0.3-1.3-0.5-2.1-0.8c-3-1-7.4-2.4-9.8-9.8l3.6-1.5c3.1-1.1,4.8-4.4,4.1-7.6c-0.3-1.3-1.1-2.5-2.2-3.4c-1-0.8-2.3-1.3-3.7-1.3
		c-0.5,0-0.9,0.1-1.4,0.2l-1.2,0.3c-0.1-1.4-0.1-2.9-0.1-4.4c0-3.1-0.6-6.2-1.9-9c-1.2-2.8-2.9-5.2-5-7.4c-2.1-2.1-4.6-3.8-7.4-5
		C74.6,33.7,71.6,33.1,68.5,33.1L68.5,33.1z"/>
</g>
<g id="Ebene_11">
	<g>
		<circle cx="68.5" cy="70.5" r="60"/>
		<g>
			<g>
				<g>
					<path class="st6" d="M100,46.5H37c-0.8,0-1.5,0.7-1.5,1.5v45c0,0.8,0.7,1.5,1.5,1.5h63c0.8,0,1.5-0.7,1.5-1.5V48
						C101.5,47.2,100.8,46.5,100,46.5z M98.5,87.9L79.9,69.3l-2.1,2.1l20.1,20.1H39.1l20.1-20.1l-2.1-2.1L38.5,87.9V49.5h60V87.9z"
						/>
				</g>
			</g>
			<g>
				<g>
					<path class="st6" d="M95.5,49.5l-27,27l-27-27h-3v1.2l28.9,28.9c0.6,0.6,1.5,0.6,2.1,0l28.9-28.9v-1.2H95.5z"/>
				</g>
			</g>
		</g>
	</g>
</g>
</svg>
