<svg id="shoping" xmlns="http://www.w3.org/2000/svg" viewBox="0 0 120 120"><defs><style>.cls-1{fill:#fff;}</style></defs><title>1buttons</title><circle cx="60" cy="60" r="60"/><path class="cls-1" d="M552.45,239.62h40.46a8.35,8.35,0,0,0,8.33-8.33V214.08a.19.19,0,0,0,0-.09s0-.08,0-.11,0-.06,0-.09a1,1,0,0,1,0-.11s0-.06,0-.09,0-.06,0-.09a.74.74,0,0,1,0-.11.33.33,0,0,0,0-.08l0-.09,0-.08-.06-.09a.27.27,0,0,0-.06-.08s0,0-.06-.08,0,0-.06-.08,0,0-.06-.06l-.08-.08-.08-.06-.09-.06-.08,0a.32.32,0,0,1-.09-.06l-.09,0-.09,0-.09,0-.09,0-.11,0-.08,0-.12,0-.06,0-51.28-7.08V198a.93.93,0,0,0,0-.21.11.11,0,0,0,0-.06s0-.09,0-.14,0-.08,0-.12,0,0,0-.08l0-.14s0,0,0-.06a.45.45,0,0,0-.06-.12s0,0,0-.06a.32.32,0,0,0-.06-.09l0-.08,0-.08-.06-.09,0,0-.09-.09,0,0-.11-.09-.06,0-.09-.08-.12-.08,0,0-.2-.09-11.12-4.68a2,2,0,1,0-1.58,3.76l9.87,4.17V244a8.34,8.34,0,0,0,7.26,8.26,8.22,8.22,0,1,0,15.27,4.23,8.07,8.07,0,0,0-1.13-4.15h18.32a8.11,8.11,0,0,0-1.13,4.15,8.23,8.23,0,1,0,8.23-8.23H552.45a4.26,4.26,0,0,1-4.26-4.26v-5.52A8.43,8.43,0,0,0,552.45,239.62Zm10.14,16.84a4.15,4.15,0,1,1-4.15-4.15A4.16,4.16,0,0,1,562.59,256.46Zm32.51,0a4.15,4.15,0,1,1-4.15-4.15A4.16,4.16,0,0,1,595.1,256.46Zm-2.19-20.92H552.45a4.26,4.26,0,0,1-4.26-4.26v-22l49,6.75v15.26A4.26,4.26,0,0,1,592.91,235.54Z" transform="translate(-512 -167.98)"/></svg>