<?xml version="1.0" encoding="utf-8"?>
<!-- Generator: Adobe Illustrator 21.0.2, SVG Export Plug-In . SVG Version: 6.00 Build 0)  -->
<svg version="1.1" id="shoping" xmlns="http://www.w3.org/2000/svg" xmlns:xlink="http://www.w3.org/1999/xlink" x="0px" y="0px"
	 viewBox="0 0 123 123" style="enable-background:new 0 0 123 123;" xml:space="preserve">
<style type="text/css">
	.st0{fill:#5BD2D8;stroke:#000000;stroke-width:3;stroke-miterlimit:10;}
</style>
<title>shoping_aktivbuttons</title>
<circle class="st0" cx="61.3" cy="61.7" r="55.3"/>
<path d="M43.3,72.4h37.3c4.2,0,7.7-3.4,7.7-7.7V48.9v-0.1v-0.1v-0.1v-0.1v-0.1v-0.1v-0.1c0,0,0,0,0-0.1V48v-0.1L88.2,48
	c0,0,0-0.1-0.1-0.1c0,0,0,0-0.1-0.1s0,0-0.1-0.1s0,0-0.1-0.1l-0.1-0.1l-0.1-0.1l-0.1-0.1h-0.1c0,0-0.1,0-0.1-0.1h-0.1h-0.1H87h-0.1
	h-0.1H87h-0.1h-0.1l-47.2-6.5v-6.8c0-0.1,0-0.1,0-0.2c0,0,0,0,0-0.1v-0.1v-0.1c0,0,0,0,0-0.1v-0.1c0,0,0,0,0-0.1c0,0,0-0.1-0.1-0.1
	c0,0,0,0,0-0.1c0,0,0-0.1-0.1-0.1V33l0,0l-0.1-0.1l0,0l-0.1-0.1l0,0l-0.1-0.1H39l-0.1-0.1l0.1,0l0,0l-0.2-0.1l-10.2-4.3
	c-1-0.4-2.1,0-2.5,1s0,2.1,1,2.5l0,0l9.1,3.8v41c0,3.9,2.9,7.1,6.7,7.6c-2.2,3.6-1,8.2,2.6,10.4c3.6,2.2,8.2,1,10.4-2.6
	c0.7-1.2,1.1-2.5,1.1-3.9c0-1.3-0.4-2.7-1-3.8h16.9c-0.7,1.2-1,2.5-1,3.8c0,4.2,3.4,7.6,7.6,7.6s7.6-3.4,7.6-7.6s-3.4-7.6-7.6-7.6
	l0,0H43.3c-2.2,0-3.9-1.8-3.9-3.9l0,0v-5.1C40.5,72.1,41.9,72.5,43.3,72.4z M52.6,88c0,2.1-1.7,3.8-3.8,3.8S45,90.1,45,88
	c0-2.1,1.7-3.8,3.8-3.8C50.9,84.1,52.6,85.9,52.6,88z M82.6,88c0,2.1-1.7,3.8-3.8,3.8c-2.1,0-3.8-1.7-3.8-3.8c0-2.1,1.7-3.8,3.8-3.8
	C80.8,84.1,82.6,85.9,82.6,88L82.6,88z M80.5,68.7H43.3c-2.2,0-3.9-1.8-3.9-3.9l0,0V44.5l45.1,6.2v14.1
	C84.5,66.9,82.7,68.7,80.5,68.7L80.5,68.7L80.5,68.7z"/>
</svg>
