<?xml version="1.0" encoding="utf-8"?>
<!-- Generator: Adobe Illustrator 21.0.2, SVG Export Plug-In . SVG Version: 6.00 Build 0)  -->
<svg version="1.1" id="wortmarke" xmlns="http://www.w3.org/2000/svg" xmlns:xlink="http://www.w3.org/1999/xlink" x="0px" y="0px"
	 viewBox="0 0 425.2 283.5" style="enable-background:new 0 0 425.2 283.5;" xml:space="preserve">
<path d="M268.2,89.3L268.2,89.3c-1.7-2.8-0.9-6.4,1.7-8l74-51.3c2.7-1.6,6.2-0.7,7.9,2.1v0c1.7,2.8,0.9,6.4-1.7,8l-74,51.3
	C273.5,93.1,269.9,92.1,268.2,89.3z"/>
<path d="M268.4,82.7L268.4,82.7c2.4-2.8,6.6-3.2,9.4-0.9l94,71.9c2.8,2.4,3.2,6.6,0.9,9.4l0,0c-2.4,2.8-6.6,3.2-9.4,0.9l-94-71.9
	C266.4,89.7,266,85.5,268.4,82.7z"/>
<path d="M128.4,255.7L128.4,255.7c-3.6-1-5.7-4.6-4.7-8.2l57.1-213.2c1-3.6,4.6-5.7,8.2-4.7l0,0c3.6,1,5.7,4.6,4.7,8.2l-57.1,213.2
	C135.6,254.5,131.9,256.6,128.4,255.7z"/>
<path d="M230.1,256L230.1,256c-3.7,0-6.7-3-6.7-6.7l0-213.5c0-3.7,3-6.7,6.7-6.7h0c3.7,0,6.7,3,6.7,6.7l0,213.5
	C236.8,253,233.8,256,230.1,256z"/>
<path d="M191.3,226.7L191.3,226.7c-1.3-3.5,0.5-7.3,4-8.6l169.9-65.5c3.5-1.3,7.3,0.5,8.6,4l0,0c1.3,3.5-0.5,7.3-4,8.6l-169.9,65.5
	C196.4,232,192.6,230.2,191.3,226.7z"/>
<path d="M131.9,255.7L131.9,255.7c-3.6,1-7.2-1.2-8.2-4.7L66.7,38c-1-3.6,1.2-7.2,4.7-8.2l0,0c3.6-1,7.2,1.2,8.2,4.7l57.1,213
	C137.6,251.1,135.5,254.7,131.9,255.7z"/>
</svg>
